<?xml version="1.0" encoding="UTF-8" standalone="no"?>
<!DOCTYPE svg PUBLIC "-//W3C//DTD SVG 1.1//EN"
 "http://www.w3.org/Graphics/SVG/1.1/DTD/svg11.dtd">
<!-- Generated by graphviz version 2.40.1 (20161225.0304)
 -->
<!-- Title: dependencies Pages: 1 -->
<svg width="1153pt" height="284pt"
 viewBox="0.00 0.00 1153.00 284.00" xmlns="http://www.w3.org/2000/svg" xmlns:xlink="http://www.w3.org/1999/xlink">
<g id="graph0" class="graph" transform="scale(1 1) rotate(0) translate(4 280)">
<title>dependencies</title>
<polygon fill="#ffffff" stroke="transparent" points="-4,4 -4,-280 1149,-280 1149,4 -4,4"/>
<text text-anchor="start" x="551.5091" y="-42.4" font-family="sans-serif" font-weight="bold" font-size="14.00" fill="#000000">Legend</text>
<polygon fill="#ffffb3" stroke="transparent" points="338.5,-10 338.5,-30 358.5,-30 358.5,-10 338.5,-10"/>
<text text-anchor="start" x="362.129" y="-15.4" font-family="sans-serif" font-size="14.00" fill="#000000"> &#160;Declarations</text>
<polygon fill="#8dd3c7" stroke="transparent" points="451.5,-10 451.5,-30 471.5,-30 471.5,-10 451.5,-10"/>
<text text-anchor="start" x="475.2251" y="-15.4" font-family="sans-serif" font-size="14.00" fill="#000000"> &#160;Module</text>
<polygon fill="#80b1d3" stroke="transparent" points="537.5,-10 537.5,-30 557.5,-30 557.5,-10 537.5,-10"/>
<text text-anchor="start" x="561.2812" y="-15.4" font-family="sans-serif" font-size="14.00" fill="#000000"> &#160;Bootstrap</text>
<polygon fill="#fdb462" stroke="transparent" points="634.5,-10 634.5,-30 654.5,-30 654.5,-10 634.5,-10"/>
<text text-anchor="start" x="658.1732" y="-15.4" font-family="sans-serif" font-size="14.00" fill="#000000"> &#160;Providers</text>
<polygon fill="#fb8072" stroke="transparent" points="730.5,-10 730.5,-30 750.5,-30 750.5,-10 730.5,-10"/>
<text text-anchor="start" x="754.2258" y="-15.4" font-family="sans-serif" font-size="14.00" fill="#000000"> &#160;Exports</text>
<g id="clust1" class="cluster">
<title>cluster_AppModule</title>
<polygon fill="none" stroke="#000000" stroke-dasharray="1,5" points="8,-70 8,-268 1137,-268 1137,-70 8,-70"/>
</g>
<g id="clust2" class="cluster">
<title>cluster_AppModule_declarations</title>
<polygon fill="none" stroke="#000000" points="688,-78 688,-130 1129,-130 1129,-78 688,-78"/>
</g>
<g id="clust6" class="cluster">
<title>cluster_AppModule_imports</title>
<polygon fill="none" stroke="#000000" points="160,-78 160,-130 680,-130 680,-78 160,-78"/>
</g>
<g id="clust8" class="cluster">
<title>cluster_AppModule_bootstrap</title>
<polygon fill="none" stroke="#000000" points="499,-208 499,-260 623,-260 623,-208 499,-208"/>
</g>
<g id="clust9" class="cluster">
<title>cluster_AppModule_providers</title>
<polygon fill="none" stroke="#000000" points="16,-78 16,-130 152,-130 152,-78 16,-78"/>
</g>
<!-- AppComponent -->
<g id="node1" class="node">
<title>AppComponent</title>
<polygon fill="#ffffb3" stroke="#000000" points="1120.9399,-122 1015.0601,-122 1015.0601,-86 1120.9399,-86 1120.9399,-122"/>
<text text-anchor="middle" x="1068" y="-99.8" font-family="Times,serif" font-size="14.00" fill="#000000">AppComponent</text>
</g>
<!-- AppModule -->
<g id="node4" class="node">
<title>AppModule</title>
<polygon fill="#8dd3c7" stroke="#000000" points="602.6571,-187 599.6571,-191 578.6571,-191 575.6571,-187 519.3429,-187 519.3429,-151 602.6571,-151 602.6571,-187"/>
<text text-anchor="middle" x="561" y="-164.8" font-family="Times,serif" font-size="14.00" fill="#000000">AppModule</text>
</g>
<!-- AppComponent&#45;&gt;AppModule -->
<g id="edge1" class="edge">
<title>AppComponent&#45;&gt;AppModule</title>
<path fill="none" stroke="#000000" d="M1068,-122.2921C1068,-144.2057 1068,-178 1068,-178 1068,-178 612.9213,-178 612.9213,-178"/>
<polygon fill="#000000" stroke="#000000" points="612.9213,-174.5001 602.9213,-178 612.9212,-181.5001 612.9213,-174.5001"/>
</g>
<!-- MathOperationsComponent -->
<g id="node2" class="node">
<title>MathOperationsComponent</title>
<polygon fill="#ffffb3" stroke="#000000" points="997.3047,-122 824.6953,-122 824.6953,-86 997.3047,-86 997.3047,-122"/>
<text text-anchor="middle" x="911" y="-99.8" font-family="Times,serif" font-size="14.00" fill="#000000">MathOperationsComponent</text>
</g>
<!-- MathOperationsComponent&#45;&gt;AppModule -->
<g id="edge2" class="edge">
<title>MathOperationsComponent&#45;&gt;AppModule</title>
<path fill="none" stroke="#000000" d="M911,-122.1061C911,-141.3391 911,-169 911,-169 911,-169 612.8705,-169 612.8705,-169"/>
<polygon fill="#000000" stroke="#000000" points="612.8706,-165.5001 602.8705,-169 612.8705,-172.5001 612.8706,-165.5001"/>
</g>
<!-- PostsComponent -->
<g id="node3" class="node">
<title>PostsComponent</title>
<polygon fill="#ffffb3" stroke="#000000" points="806.3948,-122 695.6052,-122 695.6052,-86 806.3948,-86 806.3948,-122"/>
<text text-anchor="middle" x="751" y="-99.8" font-family="Times,serif" font-size="14.00" fill="#000000">PostsComponent</text>
</g>
<!-- PostsComponent&#45;&gt;AppModule -->
<g id="edge3" class="edge">
<title>PostsComponent&#45;&gt;AppModule</title>
<path fill="none" stroke="#000000" d="M751,-122.027C751,-138.3976 751,-160 751,-160 751,-160 612.6963,-160 612.6963,-160"/>
<polygon fill="#000000" stroke="#000000" points="612.6963,-156.5001 602.6963,-160 612.6963,-163.5001 612.6963,-156.5001"/>
</g>
<!-- AppComponent  -->
<g id="node9" class="node">
<title>AppComponent </title>
<polygon fill="#80b1d3" stroke="#000000" points="615.439,-252 506.561,-252 506.561,-216 615.439,-216 615.439,-252"/>
<text text-anchor="middle" x="561" y="-229.8" font-family="Times,serif" font-size="14.00" fill="#000000">AppComponent </text>
</g>
<!-- AppModule&#45;&gt;AppComponent  -->
<g id="edge8" class="edge">
<title>AppModule&#45;&gt;AppComponent </title>
<path fill="none" stroke="#000000" stroke-dasharray="1,5" d="M561,-187.1061C561,-187.1061 561,-205.991 561,-205.991"/>
<polygon fill="#000000" stroke="#000000" points="557.5001,-205.9909 561,-215.991 564.5001,-205.991 557.5001,-205.9909"/>
</g>
<!-- FormsModule -->
<g id="node5" class="node">
<title>FormsModule</title>
<polygon fill="#8dd3c7" stroke="#000000" points="671.8288,-122 668.8288,-126 647.8288,-126 644.8288,-122 576.1712,-122 576.1712,-86 671.8288,-86 671.8288,-122"/>
<text text-anchor="middle" x="624" y="-99.8" font-family="Times,serif" font-size="14.00" fill="#000000">FormsModule</text>
</g>
<!-- FormsModule&#45;&gt;AppModule -->
<g id="edge4" class="edge">
<title>FormsModule&#45;&gt;AppModule</title>
<path fill="none" stroke="#000000" d="M589.5821,-122.1061C589.5821,-122.1061 589.5821,-140.991 589.5821,-140.991"/>
<polygon fill="#000000" stroke="#000000" points="586.0821,-140.9909 589.5821,-150.991 593.0821,-140.991 586.0821,-140.9909"/>
</g>
<!-- HttpClientModule -->
<g id="node6" class="node">
<title>HttpClientModule</title>
<polygon fill="#8dd3c7" stroke="#000000" points="558.1611,-122 555.1611,-126 534.1611,-126 531.1611,-122 439.8389,-122 439.8389,-86 558.1611,-86 558.1611,-122"/>
<text text-anchor="middle" x="499" y="-99.8" font-family="Times,serif" font-size="14.00" fill="#000000">HttpClientModule</text>
</g>
<!-- HttpClientModule&#45;&gt;AppModule -->
<g id="edge5" class="edge">
<title>HttpClientModule&#45;&gt;AppModule</title>
<path fill="none" stroke="#000000" d="M538.7511,-122.1061C538.7511,-122.1061 538.7511,-140.991 538.7511,-140.991"/>
<polygon fill="#000000" stroke="#000000" points="535.2511,-140.9909 538.7511,-150.991 542.2511,-140.991 535.2511,-140.9909"/>
</g>
<!-- BrowserModule -->
<g id="node7" class="node">
<title>BrowserModule</title>
<polygon fill="#8dd3c7" stroke="#000000" points="421.4734,-122 418.4734,-126 397.4734,-126 394.4734,-122 314.5266,-122 314.5266,-86 421.4734,-86 421.4734,-122"/>
<text text-anchor="middle" x="368" y="-99.8" font-family="Times,serif" font-size="14.00" fill="#000000">BrowserModule</text>
</g>
<!-- BrowserModule&#45;&gt;AppModule -->
<g id="edge6" class="edge">
<title>BrowserModule&#45;&gt;AppModule</title>
<path fill="none" stroke="#000000" d="M368,-122.027C368,-138.3976 368,-160 368,-160 368,-160 509.1219,-160 509.1219,-160"/>
<polygon fill="#000000" stroke="#000000" points="509.1219,-163.5001 519.1219,-160 509.1218,-156.5001 509.1219,-163.5001"/>
</g>
<!-- AppRoutingModule -->
<g id="node8" class="node">
<title>AppRoutingModule</title>
<polygon fill="#8dd3c7" stroke="#000000" points="296.2744,-122 293.2744,-126 272.2744,-126 269.2744,-122 167.7256,-122 167.7256,-86 296.2744,-86 296.2744,-122"/>
<text text-anchor="middle" x="232" y="-99.8" font-family="Times,serif" font-size="14.00" fill="#000000">AppRoutingModule</text>
</g>
<!-- AppRoutingModule&#45;&gt;AppModule -->
<g id="edge7" class="edge">
<title>AppRoutingModule&#45;&gt;AppModule</title>
<path fill="none" stroke="#000000" d="M232,-122.1061C232,-141.3391 232,-169 232,-169 232,-169 509.3319,-169 509.3319,-169"/>
<polygon fill="#000000" stroke="#000000" points="509.332,-172.5001 519.3319,-169 509.3319,-165.5001 509.332,-172.5001"/>
</g>
<!-- PostsService -->
<g id="node10" class="node">
<title>PostsService</title>
<ellipse fill="#fdb462" stroke="#000000" cx="84" cy="-104" rx="60.2672" ry="18"/>
<text text-anchor="middle" x="84" y="-99.8" font-family="Times,serif" font-size="14.00" fill="#000000">PostsService</text>
</g>
<!-- PostsService&#45;&gt;AppModule -->
<g id="edge9" class="edge">
<title>PostsService&#45;&gt;AppModule</title>
<path fill="none" stroke="#000000" d="M84,-122.2921C84,-144.2057 84,-178 84,-178 84,-178 509.0875,-178 509.0875,-178"/>
<polygon fill="#000000" stroke="#000000" points="509.0875,-181.5001 519.0875,-178 509.0875,-174.5001 509.0875,-181.5001"/>
</g>
</g>
</svg>
