<?xml version="1.0" encoding="UTF-8" standalone="no"?>
<!DOCTYPE svg PUBLIC "-//W3C//DTD SVG 1.1//EN"
 "http://www.w3.org/Graphics/SVG/1.1/DTD/svg11.dtd">
<!-- Generated by graphviz version 2.40.1 (20161225.0304)
 -->
<!-- Title: dependencies Pages: 1 -->
<svg width="1496pt" height="290pt"
 viewBox="0.00 0.00 1496.00 290.00" xmlns="http://www.w3.org/2000/svg" xmlns:xlink="http://www.w3.org/1999/xlink">
<g id="graph0" class="graph" transform="scale(1 1) rotate(0) translate(4 286)">
<title>dependencies</title>
<polygon fill="#ffffff" stroke="transparent" points="-4,4 -4,-286 1492,-286 1492,4 -4,4"/>
<text text-anchor="start" x="723.0091" y="-42.4" font-family="sans-serif" font-weight="bold" font-size="14.00" fill="#000000">Legend</text>
<polygon fill="#ffffb3" stroke="transparent" points="510,-10 510,-30 530,-30 530,-10 510,-10"/>
<text text-anchor="start" x="533.629" y="-15.4" font-family="sans-serif" font-size="14.00" fill="#000000"> &#160;Declarations</text>
<polygon fill="#8dd3c7" stroke="transparent" points="623,-10 623,-30 643,-30 643,-10 623,-10"/>
<text text-anchor="start" x="646.7251" y="-15.4" font-family="sans-serif" font-size="14.00" fill="#000000"> &#160;Module</text>
<polygon fill="#80b1d3" stroke="transparent" points="709,-10 709,-30 729,-30 729,-10 709,-10"/>
<text text-anchor="start" x="732.7812" y="-15.4" font-family="sans-serif" font-size="14.00" fill="#000000"> &#160;Bootstrap</text>
<polygon fill="#fdb462" stroke="transparent" points="806,-10 806,-30 826,-30 826,-10 806,-10"/>
<text text-anchor="start" x="829.6732" y="-15.4" font-family="sans-serif" font-size="14.00" fill="#000000"> &#160;Providers</text>
<polygon fill="#fb8072" stroke="transparent" points="902,-10 902,-30 922,-30 922,-10 902,-10"/>
<text text-anchor="start" x="925.7258" y="-15.4" font-family="sans-serif" font-size="14.00" fill="#000000"> &#160;Exports</text>
<g id="clust1" class="cluster">
<title>cluster_AppModule</title>
<polygon fill="none" stroke="#000000" stroke-dasharray="1,5" points="8,-70 8,-274 1136,-274 1136,-70 8,-70"/>
</g>
<g id="clust2" class="cluster">
<title>cluster_AppModule_declarations</title>
<polygon fill="none" stroke="#000000" points="160,-78 160,-130 601,-130 601,-78 160,-78"/>
</g>
<g id="clust6" class="cluster">
<title>cluster_AppModule_imports</title>
<polygon fill="none" stroke="#000000" points="609,-78 609,-130 1128,-130 1128,-78 609,-78"/>
</g>
<g id="clust8" class="cluster">
<title>cluster_AppModule_bootstrap</title>
<polygon fill="none" stroke="#000000" points="543,-214 543,-266 667,-266 667,-214 543,-214"/>
</g>
<g id="clust9" class="cluster">
<title>cluster_AppModule_providers</title>
<polygon fill="none" stroke="#000000" points="16,-78 16,-130 152,-130 152,-78 16,-78"/>
</g>
<g id="clust10" class="cluster">
<title>cluster_AppRoutingModule</title>
<polygon fill="none" stroke="#000000" stroke-dasharray="1,5" points="1144,-138 1144,-206 1480,-206 1480,-138 1144,-138"/>
</g>
<g id="clust12" class="cluster">
<title>cluster_AppRoutingModule_imports</title>
<polygon fill="none" stroke="#000000" points="1278,-146 1278,-198 1472,-198 1472,-146 1278,-146"/>
</g>
<g id="clust13" class="cluster">
<title>cluster_AppRoutingModule_exports</title>
<polygon fill="none" stroke="#000000" points="1152,-146 1152,-198 1270,-198 1270,-146 1152,-146"/>
</g>
<!-- AppComponent -->
<g id="node1" class="node">
<title>AppComponent</title>
<polygon fill="#ffffb3" stroke="#000000" points="592.9399,-122 487.0601,-122 487.0601,-86 592.9399,-86 592.9399,-122"/>
<text text-anchor="middle" x="540" y="-99.8" font-family="Times,serif" font-size="14.00" fill="#000000">AppComponent</text>
</g>
<!-- AppModule -->
<g id="node4" class="node">
<title>AppModule</title>
<polygon fill="#8dd3c7" stroke="#000000" points="646.6571,-190 643.6571,-194 622.6571,-194 619.6571,-190 563.3429,-190 563.3429,-154 646.6571,-154 646.6571,-190"/>
<text text-anchor="middle" x="605" y="-167.8" font-family="Times,serif" font-size="14.00" fill="#000000">AppModule</text>
</g>
<!-- AppComponent&#45;&gt;AppModule -->
<g id="edge1" class="edge">
<title>AppComponent&#45;&gt;AppModule</title>
<path fill="none" stroke="#000000" d="M577.9457,-122.2228C577.9457,-122.2228 577.9457,-143.7269 577.9457,-143.7269"/>
<polygon fill="#000000" stroke="#000000" points="574.4457,-143.7269 577.9457,-153.7269 581.4457,-143.727 574.4457,-143.7269"/>
</g>
<!-- MathOperationsComponent -->
<g id="node2" class="node">
<title>MathOperationsComponent</title>
<polygon fill="#ffffb3" stroke="#000000" points="469.3047,-122 296.6953,-122 296.6953,-86 469.3047,-86 469.3047,-122"/>
<text text-anchor="middle" x="383" y="-99.8" font-family="Times,serif" font-size="14.00" fill="#000000">MathOperationsComponent</text>
</g>
<!-- MathOperationsComponent&#45;&gt;AppModule -->
<g id="edge2" class="edge">
<title>MathOperationsComponent&#45;&gt;AppModule</title>
<path fill="none" stroke="#000000" d="M383,-122.0225C383,-139.3734 383,-163 383,-163 383,-163 553.2435,-163 553.2435,-163"/>
<polygon fill="#000000" stroke="#000000" points="553.2435,-166.5001 563.2435,-163 553.2435,-159.5001 553.2435,-166.5001"/>
</g>
<!-- PostsComponent -->
<g id="node3" class="node">
<title>PostsComponent</title>
<polygon fill="#ffffb3" stroke="#000000" points="278.3948,-122 167.6052,-122 167.6052,-86 278.3948,-86 278.3948,-122"/>
<text text-anchor="middle" x="223" y="-99.8" font-family="Times,serif" font-size="14.00" fill="#000000">PostsComponent</text>
</g>
<!-- PostsComponent&#45;&gt;AppModule -->
<g id="edge3" class="edge">
<title>PostsComponent&#45;&gt;AppModule</title>
<path fill="none" stroke="#000000" d="M223,-122.2228C223,-142.3652 223,-172 223,-172 223,-172 553.0266,-172 553.0266,-172"/>
<polygon fill="#000000" stroke="#000000" points="553.0266,-175.5001 563.0266,-172 553.0266,-168.5001 553.0266,-175.5001"/>
</g>
<!-- AppComponent  -->
<g id="node9" class="node">
<title>AppComponent </title>
<polygon fill="#80b1d3" stroke="#000000" points="659.439,-258 550.561,-258 550.561,-222 659.439,-222 659.439,-258"/>
<text text-anchor="middle" x="605" y="-235.8" font-family="Times,serif" font-size="14.00" fill="#000000">AppComponent </text>
</g>
<!-- AppModule&#45;&gt;AppComponent  -->
<g id="edge8" class="edge">
<title>AppModule&#45;&gt;AppComponent </title>
<path fill="none" stroke="#000000" stroke-dasharray="1,5" d="M605,-190.2228C605,-190.2228 605,-211.7269 605,-211.7269"/>
<polygon fill="#000000" stroke="#000000" points="601.5001,-211.7269 605,-221.7269 608.5001,-211.727 601.5001,-211.7269"/>
</g>
<!-- FormsModule -->
<g id="node5" class="node">
<title>FormsModule</title>
<polygon fill="#8dd3c7" stroke="#000000" points="973.8288,-122 970.8288,-126 949.8288,-126 946.8288,-122 878.1712,-122 878.1712,-86 973.8288,-86 973.8288,-122"/>
<text text-anchor="middle" x="926" y="-99.8" font-family="Times,serif" font-size="14.00" fill="#000000">FormsModule</text>
</g>
<!-- FormsModule&#45;&gt;AppModule -->
<g id="edge4" class="edge">
<title>FormsModule&#45;&gt;AppModule</title>
<path fill="none" stroke="#000000" d="M926,-122.2228C926,-142.3652 926,-172 926,-172 926,-172 656.9651,-172 656.9651,-172"/>
<polygon fill="#000000" stroke="#000000" points="656.9652,-168.5001 646.9651,-172 656.9651,-175.5001 656.9652,-168.5001"/>
</g>
<!-- HttpClientModule -->
<g id="node6" class="node">
<title>HttpClientModule</title>
<polygon fill="#8dd3c7" stroke="#000000" points="860.1611,-122 857.1611,-126 836.1611,-126 833.1611,-122 741.8389,-122 741.8389,-86 860.1611,-86 860.1611,-122"/>
<text text-anchor="middle" x="801" y="-99.8" font-family="Times,serif" font-size="14.00" fill="#000000">HttpClientModule</text>
</g>
<!-- HttpClientModule&#45;&gt;AppModule -->
<g id="edge5" class="edge">
<title>HttpClientModule&#45;&gt;AppModule</title>
<path fill="none" stroke="#000000" d="M801,-122.0225C801,-139.3734 801,-163 801,-163 801,-163 657.0469,-163 657.0469,-163"/>
<polygon fill="#000000" stroke="#000000" points="657.047,-159.5001 647.0469,-163 657.0469,-166.5001 657.047,-159.5001"/>
</g>
<!-- BrowserModule -->
<g id="node7" class="node">
<title>BrowserModule</title>
<polygon fill="#8dd3c7" stroke="#000000" points="723.4734,-122 720.4734,-126 699.4734,-126 696.4734,-122 616.5266,-122 616.5266,-86 723.4734,-86 723.4734,-122"/>
<text text-anchor="middle" x="670" y="-99.8" font-family="Times,serif" font-size="14.00" fill="#000000">BrowserModule</text>
</g>
<!-- BrowserModule&#45;&gt;AppModule -->
<g id="edge6" class="edge">
<title>BrowserModule&#45;&gt;AppModule</title>
<path fill="none" stroke="#000000" d="M631.6708,-122.2228C631.6708,-122.2228 631.6708,-143.7269 631.6708,-143.7269"/>
<polygon fill="#000000" stroke="#000000" points="628.1708,-143.7269 631.6708,-153.7269 635.1708,-143.727 628.1708,-143.7269"/>
</g>
<!-- AppRoutingModule -->
<g id="node8" class="node">
<title>AppRoutingModule</title>
<polygon fill="#8dd3c7" stroke="#000000" points="1120.2744,-122 1117.2744,-126 1096.2744,-126 1093.2744,-122 991.7256,-122 991.7256,-86 1120.2744,-86 1120.2744,-122"/>
<text text-anchor="middle" x="1056" y="-99.8" font-family="Times,serif" font-size="14.00" fill="#000000">AppRoutingModule</text>
</g>
<!-- AppRoutingModule&#45;&gt;AppModule -->
<g id="edge7" class="edge">
<title>AppRoutingModule&#45;&gt;AppModule</title>
<path fill="none" stroke="#000000" d="M1056,-122.2479C1056,-145.0179 1056,-181 1056,-181 1056,-181 657.024,-181 657.024,-181"/>
<polygon fill="#000000" stroke="#000000" points="657.024,-177.5001 647.024,-181 657.024,-184.5001 657.024,-177.5001"/>
</g>
<!-- RouterModule  -->
<g id="node12" class="node">
<title>RouterModule </title>
<polygon fill="#fb8072" stroke="#000000" points="1261.6523,-190 1160.3477,-190 1160.3477,-154 1261.6523,-154 1261.6523,-190"/>
<text text-anchor="middle" x="1211" y="-167.8" font-family="Times,serif" font-size="14.00" fill="#000000">RouterModule </text>
</g>
<!-- AppRoutingModule&#45;&gt;RouterModule  -->
<g id="edge11" class="edge">
<title>AppRoutingModule&#45;&gt;RouterModule </title>
<path fill="none" stroke="#000000" stroke-dasharray="5,2" d="M1120.3874,-110C1162.9734,-110 1211,-110 1211,-110 1211,-110 1211,-143.7333 1211,-143.7333"/>
<polygon fill="#000000" stroke="#000000" points="1207.5001,-143.7333 1211,-153.7333 1214.5001,-143.7333 1207.5001,-143.7333"/>
</g>
<!-- PostsService -->
<g id="node10" class="node">
<title>PostsService</title>
<ellipse fill="#fdb462" stroke="#000000" cx="84" cy="-104" rx="60.2672" ry="18"/>
<text text-anchor="middle" x="84" y="-99.8" font-family="Times,serif" font-size="14.00" fill="#000000">PostsService</text>
</g>
<!-- PostsService&#45;&gt;AppModule -->
<g id="edge9" class="edge">
<title>PostsService&#45;&gt;AppModule</title>
<path fill="none" stroke="#000000" d="M84,-122.2479C84,-145.0179 84,-181 84,-181 84,-181 553.2451,-181 553.2451,-181"/>
<polygon fill="#000000" stroke="#000000" points="553.2451,-184.5001 563.2451,-181 553.245,-177.5001 553.2451,-184.5001"/>
</g>
<!-- RouterModule.forRoot(args) -->
<g id="node11" class="node">
<title>RouterModule.forRoot(args)</title>
<polygon fill="#8dd3c7" stroke="#000000" points="1463.8419,-190 1460.8419,-194 1439.8419,-194 1436.8419,-190 1286.1581,-190 1286.1581,-154 1463.8419,-154 1463.8419,-190"/>
<text text-anchor="middle" x="1375" y="-167.8" font-family="Times,serif" font-size="14.00" fill="#000000">RouterModule.forRoot(args)</text>
</g>
<!-- RouterModule.forRoot(args)&#45;&gt;AppRoutingModule -->
<g id="edge10" class="edge">
<title>RouterModule.forRoot(args)&#45;&gt;AppRoutingModule</title>
<path fill="none" stroke="#000000" d="M1375,-153.7079C1375,-131.7943 1375,-98 1375,-98 1375,-98 1130.5544,-98 1130.5544,-98"/>
<polygon fill="#000000" stroke="#000000" points="1130.5544,-94.5001 1120.5544,-98 1130.5544,-101.5001 1130.5544,-94.5001"/>
</g>
</g>
</svg>
